name D:\school\WTK\thesis\model\3dpredictsim\Results\batch_windlass\Pog_s1_tmt_bCst_d00_k1000_WL30_ig24_act_TTC.mot
datacolumns 128
datarows 4
range 1.24345901 1.28076278
endheader
time	pelvis_tilt	pelvis_list	pelvis_rotation	pelvis_tx	pelvis_ty	pelvis_tz	hip_flexion_l	hip_adduction_l	hip_rotation_l	hip_flexion_r	hip_adduction_r	hip_rotation_r	knee_angle_l	knee_angle_r	ankle_angle_l	ankle_angle_r	subtalar_angle_l	subtalar_angle_r	tmt_angle_l	tmt_angle_r	mtp_angle_l	mtp_angle_r	lumbar_extension	lumbar_bending	lumbar_rotation	arm_flex_l	arm_add_l	arm_rot_l	arm_flex_r	arm_add_r	arm_rot_r	elbow_flex_l	elbow_flex_r	pro_sup_l	pro_sup_r	glut_med1_l/activation	glut_med2_l/activation	glut_med3_l/activation	glut_min1_l/activation	glut_min2_l/activation	glut_min3_l/activation	semimem_l/activation	semiten_l/activation	bifemlh_l/activation	bifemsh_l/activation	sar_l/activation	add_long_l/activation	add_brev_l/activation	add_mag1_l/activation	add_mag2_l/activation	add_mag3_l/activation	tfl_l/activation	pect_l/activation	grac_l/activation	glut_max1_l/activation	glut_max2_l/activation	glut_max3_l/activation	iliacus_l/activation	psoas_l/activation	quad_fem_l/activation	gem_l/activation	peri_l/activation	rect_fem_l/activation	vas_med_l/activation	vas_int_l/activation	vas_lat_l/activation	med_gas_l/activation	lat_gas_l/activation	soleus_l/activation	tib_post_l/activation	flex_dig_l/activation	flex_hal_l/activation	tib_ant_l/activation	per_brev_l/activation	per_long_l/activation	per_tert_l/activation	ext_dig_l/activation	ext_hal_l/activation	ercspn_l/activation	intobl_l/activation	extobl_l/activation	glut_med1_r/activation	glut_med2_r/activation	glut_med3_r/activation	glut_min1_r/activation	glut_min2_r/activation	glut_min3_r/activation	semimem_r/activation	semiten_r/activation	bifemlh_r/activation	bifemsh_r/activation	sar_r/activation	add_long_r/activation	add_brev_r/activation	add_mag1_r/activation	add_mag2_r/activation	add_mag3_r/activation	tfl_r/activation	pect_r/activation	grac_r/activation	glut_max1_r/activation	glut_max2_r/activation	glut_max3_r/activation	iliacus_r/activation	psoas_r/activation	quad_fem_r/activation	gem_r/activation	peri_r/activation	rect_fem_r/activation	vas_med_r/activation	vas_int_r/activation	vas_lat_r/activation	med_gas_r/activation	lat_gas_r/activation	soleus_r/activation	tib_post_r/activation	flex_dig_r/activation	flex_hal_r/activation	tib_ant_r/activation	per_brev_r/activation	per_long_r/activation	per_tert_r/activation	ext_dig_r/activation	ext_hal_r/activation	ercspn_r/activation	intobl_r/activation	extobl_r/activation	
          1.24345901	         -2.92995732	         -1.12837958	          8.27481932	          1.55432377	          0.85707025	         -0.00199094	        -15.71379274	         -2.35877244	          9.03448295	         33.63488133	          0.71270467	          0.64510427	        -16.46172479	        -17.56613010	         -5.63563409	          9.40508073	         18.24051622	          2.09656537	        -10.66205171	         -0.28096939	         33.66640578	          0.83088681	          0.02091338	         -1.18827039	         -3.25464944	          2.41722729	        -13.53942509	         17.03695450	        -14.45655421	        -13.66653031	          7.81296636	         48.67944492	         19.88193448	         86.51662706	         86.51662706	          0.22079042	          0.07330015	          0.05000608	          0.24968505	          0.15481878	          0.08003842	          0.05028808	          0.05002695	          0.05002483	          0.05001204	          0.08629016	          0.11710188	          0.08244410	          0.06177167	          0.05091767	          0.05992239	          0.18050999	          0.05064664	          0.05003704	          0.05019056	          0.05015706	          0.05014269	          0.30335760	          0.42205420	          0.05001023	          0.05004856	          0.05002608	          0.11983360	          0.08891316	          0.10127040	          0.10162940	          0.14838366	          0.20548016	          0.05000139	          0.12466001	          0.14714456	          0.15941409	          0.29159000	          0.47314292	          0.34916053	          0.48060317	          0.40733618	          0.26451267	          0.05000159	          0.05002210	          0.05001785	          0.10084693	          0.05878371	          0.06035777	          0.05005445	          0.05007431	          0.05017771	          0.07289297	          0.07282690	          0.07297725	          0.06033207	          0.05003582	          0.06680714	          0.11094461	          0.21490785	          0.15847864	          0.10701904	          0.05045506	          0.05021023	          0.07268582	          0.06038188	          0.09176015	          0.07971905	          0.06732910	          0.06834432	          0.25214497	          0.05004284	          0.05030137	          0.05003903	          0.05096017	          0.08729509	          0.05307133	          0.06037718	          0.06038588	          0.07045472	          0.06037083	          0.08130563	          0.08049880	          0.48336749	          0.27690961	          0.20788265	          0.08862020	          0.58507125	          0.31778271	          0.05000370	          0.11957713	          0.10627783	
          1.25589360	         -2.92401157	         -1.07009351	          8.38843277	          1.57461283	          0.85592785	         -0.00161207	        -15.75494227	         -2.52276877	          8.76664266	         32.86935253	          0.97882623	          0.82942480	        -18.02887650	        -17.10449969	         -8.32627906	          8.85253171	         18.69417677	          1.76081286	        -10.91489902	         -0.37392291	         33.82837765	          1.09058798	          0.28429767	         -0.99749898	         -3.36140469	          1.83906230	        -13.61128536	         17.24723886	        -15.89953885	        -13.65659872	          7.74646181	         49.95936286	         19.81955612	         86.51662706	         86.51662706	          0.18289451	          0.06073750	          0.05011361	          0.20683002	          0.12824916	          0.06638440	          0.05030136	          0.05007362	          0.05006738	          0.05057202	          0.07151065	          0.15722989	          0.24427293	          0.13553391	          0.05102190	          0.05004129	          0.14952673	          0.09844083	          0.07279909	          0.05027281	          0.05014856	          0.05008313	          0.25128527	          0.34960797	          0.07429803	          0.05300827	          0.07283115	          0.09926267	          0.07365469	          0.08389071	          0.08418710	          0.12291142	          0.17020688	          0.05000156	          0.10326084	          0.12188945	          0.13205103	          0.48156869	          0.42784602	          0.32138289	          0.71600516	          0.52050249	          0.21915633	          0.06256443	          0.06288398	          0.05778959	          0.11599553	          0.05039307	          0.05001196	          0.06042651	          0.06035791	          0.05058359	          0.06038538	          0.06033003	          0.06045537	          0.05001760	          0.05017422	          0.08799907	          0.15463579	          0.17852563	          0.19815740	          0.15433375	          0.05001754	          0.07286149	          0.06023048	          0.05003229	          0.16167638	          0.17135539	          0.05733187	          0.05662119	          0.20888693	          0.15576405	          0.21327869	          0.06827828	          0.22754903	          0.22571073	          0.19112395	          0.05001370	          0.05002218	          0.05836065	          0.05000990	          0.06736894	          0.06669945	          0.68221157	          0.32455792	          0.17255332	          0.50167474	          0.70422700	          0.53471650	          0.05000859	          0.09905044	          0.08803403	
          1.26832819	         -2.91100922	         -1.01832338	          8.46318570	          1.59496350	          0.85414779	         -0.00124413	        -15.56725564	         -2.63681803	          8.51832635	         31.99062088	          1.26332877	          1.08402408	        -20.13925491	        -17.30778676	        -10.48087637	          8.01241679	         19.04252413	          1.41715918	        -10.45431138	         -0.55720914	         31.93129723	          1.40138693	          0.54093643	         -0.78504850	         -3.44916161	          1.22223506	        -13.69919014	         17.39217117	        -17.26290382	        -13.66717715	          7.81070913	         51.22387649	         19.62391995	         86.51662706	         86.51662706	          0.15150348	          0.06037784	          0.06037366	          0.17133199	          0.10624034	          0.06038071	          0.05018470	          0.05002833	          0.05021994	          0.05000680	          0.05925029	          0.14004591	          0.30018927	          0.22492045	          0.12568985	          0.12772221	          0.12386228	          0.08158737	          0.06033765	          0.06047802	          0.06050361	          0.06672907	          0.20815117	          0.29048698	          0.06157868	          0.06045563	          0.06036307	          0.08222304	          0.07286994	          0.07286981	          0.07286991	          0.10181202	          0.14098914	          0.05000103	          0.08553528	          0.10097002	          0.10938571	          0.45018888	          0.41306314	          0.30151286	          0.59500590	          0.70719237	          0.47554302	          0.09322545	          0.06036291	          0.05002836	          0.24296287	          0.05002012	          0.26942148	          0.05006543	          0.05002878	          0.05002464	          0.05002625	          0.05000921	          0.05008129	          0.05000525	          0.05003962	          0.07291737	          0.12810688	          0.25344488	          0.23946264	          0.15484647	          0.05006873	          0.06262471	          0.05006544	          0.17227249	          0.16110920	          0.14196366	          0.05037595	          0.05024120	          0.26571745	          0.12903484	          0.17668197	          0.06037334	          0.29757401	          0.28907744	          0.24780349	          0.05257312	          0.05564641	          0.06036087	          0.05001300	          0.06030531	          0.06034248	          0.63150576	          0.39266338	          0.19111180	          0.60454383	          0.69376473	          0.44293424	          0.05000301	          0.08204756	          0.07292211	
          1.28076278	         -2.89247377	         -0.98234115	          8.49629259	          1.61518890	          0.85195816	         -0.00087616	        -15.14667469	         -2.71522407	          8.30126459	         30.96216244	          1.55219831	          1.37490393	        -22.76212940	        -17.84847544	        -12.14086313	          7.54526456	         19.28986495	          1.04477334	         -9.34775329	         -1.51424463	         28.09692967	          1.50169404	          0.78270413	         -0.54718612	         -3.51868402	          0.60625845	        -13.78419075	         17.47654935	        -18.48590753	        -13.69301777	          8.04170095	         52.40141345	         19.23948336	         86.51662706	         86.51662706	          0.27245087	          0.05001728	          0.05001103	          0.25698123	          0.08801026	          0.05002555	          0.06481505	          0.05001373	          0.05002129	          0.05000722	          0.05010040	          0.18550724	          0.31961880	          0.18694835	          0.10420656	          0.10581829	          0.10260385	          0.08144452	          0.05002803	          0.05014722	          0.05014186	          0.05528339	          0.17244280	          0.28914584	          0.05100974	          0.05009062	          0.05000860	          0.06810843	          0.06036260	          0.06036253	          0.06036219	          0.08433510	          0.11678871	          0.05462018	          0.07085311	          0.08364251	          0.09061368	          0.61637173	          0.39117147	          0.28631297	          0.54753715	          0.58579312	          0.39391062	          0.11366909	          0.05000152	          0.05000518	          0.36655734	          0.36841484	          0.50096906	          0.13247531	          0.07167856	          0.34493973	          0.07294467	          0.10603999	          0.08051465	          0.07286318	          0.05007409	          0.06040427	          0.10611880	          0.20995840	          0.20309439	          0.17249777	          0.05001817	          0.05195694	          0.08885458	          0.29319685	          0.23131144	          0.18163558	          0.05001086	          0.05001015	          0.22014962	          0.10690650	          0.33407771	          0.05001098	          0.24801297	          0.28234075	          0.23226765	          0.05000147	          0.05000272	          0.05000069	          0.05000094	          0.05001565	          0.05001293	          0.79852010	          0.32526552	          0.15830703	          0.78377784	          0.82557423	          0.67965569	          0.06574054	          0.06796903	          0.06040448	
